<svg xmlns="http://www.w3.org/2000/svg" width="800" height="800" fill="none"><g clip-path="url(#a)"><ellipse cx="210" cy="200" fill="#fff" rx="210" ry="200" transform="matrix(1 0 0 -1 190 522.208)"/><path stroke="#fff" stroke-linecap="round" stroke-linejoin="round" stroke-miterlimit="10" stroke-width="5" d="M177.833 800.208 400 355.875l222.167 444.333"/><path fill="#fff" d="M180.333 795.208 400 355.875l219.667 439.333H180.333Z"/><path stroke="#000" stroke-linecap="round" stroke-linejoin="round" stroke-miterlimit="10" stroke-width="10" d="m175.333 805.208 148-296m153.334 0 148 296"/><path stroke="#0AF" stroke-linecap="round" stroke-linejoin="round" stroke-miterlimit="10" stroke-width="10" d="M400-16v138.542"/><path stroke="#000" stroke-linecap="round" stroke-linejoin="round" stroke-miterlimit="10" stroke-width="10" d="m190.238 322.542.192-8.544.586-8.659.976-8.607 1.367-8.563 1.758-8.512 2.149-8.45 2.734-8.968 3.125-8.718 3.711-8.952 4.101-8.658 4.688-8.744 5.273-8.735 6.055-8.926 6.641-8.728 7.226-8.487 7.617-8.014 7.813-7.387 8.203-6.983 8.594-6.576 8.789-6.036 9.18-5.64 9.375-5.125 9.57-4.626 9.766-4.138 9.96-3.654 10.157-3.169 10.351-2.682 10.547-2.185 10.547-1.652 10.547-1.131 10.742-.626 10.742-.1 10.742.425 10.743.953 10.547 1.457 10.546 1.986 10.352 2.479 10.156 2.961 10.156 3.512 9.961 4.009 9.571 4.413 9.375 4.899 9.179 5.397 8.985 5.915 8.594 6.309 8.203 6.692 8.008 7.255 7.617 7.668 7.226 8.094 6.836 8.542 6.445 9.029 5.665 8.923 5.078 9.022 4.492 9.052 3.906 8.996 3.32 8.815 2.93 9.11 2.344 8.707 1.953 8.911 1.562 9.241.977 7.964.586 7.099.371 9.695.016 2.445m-419.524 0 .192 8.543.586 8.659.976 8.607 1.367 8.564 1.758 8.512 2.149 8.449 2.734 8.968 3.125 8.718 3.711 8.952 4.101 8.658 4.688 8.744 5.273 8.735 6.055 8.926 6.641 8.728 7.226 8.488 7.617 8.013 7.813 7.388 8.203 6.982 8.594 6.577 8.789 6.036 9.18 5.639 9.375 5.125 9.57 4.626 9.766 4.138 4.966 1.891"/><path stroke="#000" stroke-linecap="round" stroke-linejoin="round" stroke-miterlimit="10" stroke-width="10" d="m475.307 509.208 9.849-3.889 9.766-4.427 9.375-4.825 9.18-5.318 8.984-5.829 8.594-6.218 8.398-6.759 8.008-7.162 7.617-7.565 7.227-7.978 6.836-8.408 6.445-8.87 5.859-9.066 5.274-9.218 4.492-8.902 3.906-8.814 3.516-9.139 2.929-8.908 2.344-8.445 1.953-8.528 1.563-8.609 1.172-8.713.781-8.937.371-9.694.016-2.445"/><path stroke="#000" stroke-linecap="round" stroke-linejoin="round" stroke-miterlimit="10" stroke-opacity=".5" stroke-width="4" d="m266.867 799.208 47.047-156.666m172.172 0 47.047 156.666m-177.511 0 14.348-143.333m60.06 0 14.348 143.333"/><path fill="#000" d="m366.667 255.875.325-9.203.781-7.248.977-5.2 1.172-3.964 1.172-2.467 1.172-1.347 1.067-.385.886.264.976.922 1.172 2.08.977 2.732.976 4.03.782 4.838.585 5.927.196 3.455.117 5.566-.117 5.566-.196 3.455-.585 5.927-.782 4.838-.976 4.03-.977 2.732-1.172 2.08-.976.922-.886.264-1.067-.385-1.172-1.347-1.172-2.467-1.172-3.964-.977-5.2-.781-7.248-.325-9.203Zm53.333 0 .312-9.021.782-7.342.976-5.232 1.172-3.985 1.172-2.481 1.172-1.359.976-.391.977.253.977.913 1.171 2.067.977 2.718.977 4.008.781 4.804.586 5.845.195 3.339.13 5.864-.13 5.864-.195 3.339-.586 5.845-.781 4.804-.977 4.008-.977 2.718-1.171 2.067-.977.913-.977.253-.976-.391-1.172-1.359-1.172-2.481-1.172-3.985-.976-5.232-.782-7.342-.312-9.021Z"/><path stroke="#000" stroke-linecap="round" stroke-linejoin="round" stroke-miterlimit="10" stroke-width="5" d="m342.265 322.542 6.954 3.704 7.226 3.236 7.422 2.731 7.422 2.172 7.617 1.684 7.617 1.154 7.813.65 7.812.119 7.813-.411 7.617-.915 7.617-1.437 7.422-1.92 7.422-2.461 7.227-2.953 7.031-3.446 3.438-1.907"/><path stroke="#FAA" stroke-linecap="round" stroke-linejoin="round" stroke-miterlimit="10" stroke-width="4" d="M500 289.379v33.032m-200 0v-33.032m220-.146v33.178m-240 0v-33.178"/><path stroke="#0AF" stroke-linecap="round" stroke-linejoin="round" stroke-miterlimit="10" stroke-width="10" d="m266.667 489.208.325-3.29.781-2.758 1.368-2.948 1.953-2.948 2.929-3.277 3.516-3.023 4.297-2.924 4.883-2.662 5.664-2.473 6.445-2.218 7.031-1.85 7.618-1.449 8.007-.982 8.203-.481 8.399.035 8.203.55 8.008 1.056 7.617 1.528 7.031 1.935 6.446 2.316 5.664 2.587 4.882 2.799 4.102 2.949 3.32 3.026 2.735 3.26 1.953 3.233 1.172 2.921.586 2.539.195 2.549.391-3.603.781-2.619 1.367-2.889 1.953-2.918 2.93-3.255 3.515-3.01 4.297-2.914 4.883-2.654 5.664-2.467 6.446-2.212 7.031-1.845 7.617-1.444 8.008-.978 8.203-.477 8.398.039 8.203.555 8.008 1.06 7.617 1.532 7.032 1.941 6.445 2.322 5.664 2.594 4.883 2.807 4.101 2.96 3.321 3.04 2.734 3.284 1.953 3.275 1.172 3.004.586 2.79.13 2.082"/><path stroke="#0AF" stroke-linecap="round" stroke-linejoin="round" stroke-miterlimit="10" stroke-width="10" d="m266.667 489.208.325 3.29.781 2.759 1.368 2.948 1.953 2.948 2.929 3.277 3.516 3.023 4.297 2.924 4.883 2.662 5.664 2.473 6.445 2.218 7.031 1.849 7.618 1.45 8.007.982 8.203.481 8.399-.035 8.203-.551 8.008-1.055 7.617-1.528 7.031-1.936 6.446-2.315 5.664-2.588 4.882-2.799 4.102-2.949 3.32-3.025 2.735-3.26 1.953-3.233 1.172-2.922.586-2.538.195-2.55.391 3.603.781 2.62 1.367 2.889 1.953 2.917 2.93 3.256 3.515 3.009 4.297 2.915 4.883 2.653 5.664 2.467 6.446 2.212 7.031 1.845 7.617 1.445 8.008.978 8.203.477 8.398-.04 8.203-.554 8.008-1.06 7.617-1.532 7.032-1.941 6.445-2.322 5.664-2.594 4.883-2.807 4.101-2.961 3.321-3.04 2.734-3.283 1.953-3.275 1.172-3.004.586-2.79.13-2.083"/><path stroke="#0AF" stroke-linecap="round" stroke-linejoin="round" stroke-miterlimit="10" stroke-width="10" d="m320 509.208 8.906-3.066 9.766-2.796 10.351-2.406 10.743-1.957 11.132-1.501 11.524-1.025 11.719-.518h11.718l11.719.518 11.524 1.025 11.328 1.532 10.937 2.007 10.352 2.426 9.765 2.819 8.516 2.942"/><path fill="#0AF" d="m390.572 489.208.248-3.04.782-3.019 1.171-2.504 1.563-2.096 1.758-1.476 1.953-.909 1.953-.289 1.758.234 1.758.728 1.757 1.319 1.563 1.87 1.367 2.61.781 2.53.391 2.629.053 1.413-.053 1.413-.391 2.63-.781 2.53-1.367 2.61-1.563 1.87-1.757 1.319-1.758.728-1.758.234-1.953-.29-1.953-.909-1.758-1.476-1.563-2.095-1.171-2.505-.782-3.018-.248-3.041Z"/><path stroke="#0AF" stroke-linecap="round" stroke-linejoin="round" stroke-miterlimit="10" stroke-width="10" d="m266.667 593.792 15.169-5.25 13.672-5.28 12.304-5.304 11.133-5.362 10.157-5.474 9.179-5.549 8.399-5.707 7.617-5.836 6.836-5.918 6.25-6.133 5.859-6.56 5.274-6.782 4.882-7.267 4.297-7.451 3.711-7.519 3.321-7.896 2.929-8.239 2.344-7.788 2.539 8.383 2.93 8.146 3.32 7.82 3.711 7.458 4.102 7.086 4.687 6.996 5.273 6.818 5.86 6.59 6.25 6.157 6.836 5.939 7.422 5.713 8.203 5.613 8.984 5.477 9.766 5.322 10.742 5.246 11.914 5.217 13.086 5.146 14.453 5.108 3.255 1.08"/></g><defs><clipPath id="a"><path fill="#fff" d="M0 0h800v800H0z"/></clipPath></defs></svg>