<svg xmlns="http://www.w3.org/2000/svg" width="400" height="400"><defs><clipPath id="a" clipPathUnits="userSpaceOnUse"><path d="M-222.769 227.358501h300v-300h-300Z"/></clipPath><clipPath id="b" clipPathUnits="userSpaceOnUse"><path d="M-208.92111 117.3825h300v-300h-300Z"/></clipPath><clipPath id="c" clipPathUnits="userSpaceOnUse"><path d="M-223.8295 128.2419h300v-300h-300Z"/></clipPath></defs><path d="M0 0c-16.181-17.258-38.166-22.935-64.779-25.627-53.887-5.449-100.569 18.616-106.223 78.744-2.403 25.562 3.286 49.862 14.756 69.775l-6.678 26.262c-1.078 4.565 3.123 8.907 7.572 7.827l23.069-5.6c13.718 11.264 30.312 18.625 48.616 20.476 15.657 1.583 30.837-1.043 44.638-7.031l21.684 13.118c4.081 2.468 9.248-.322 9.638-5.205l1.25-30.935v-.001c16.676-17.605 28.031-41.649 30.598-68.952 1.45-15.422-.15-27.219-4.238-38.474-1.914-5.268-2.49-9.723.97-14.132 3.342-4.26 8.643-12.531 14.554-11.145 8.884 2.083 18.398 1.528 24.278-2.144 11.181 20.995 17.526 44.956 17.526 70.403 0 82.842-67.157 150-150 150s-150-67.158-150-150c0-82.843 67.157-150 150-150 42.48 0 80.831 17.663 108.123 46.04-4.787.718-9.683 2.577-14.334 5.677C12.089-14.97 4.163-9.345 0 0" clip-path="url(#a)" style="fill:#55c500;fill-opacity:1;fill-rule:nonzero;stroke:none" transform="matrix(1.3333333 0 0 -1.3333333 297.02533 303.14467)"/><path d="m0 0 14.009 1.717-.198 2.524L-.562 2.48c-.617 1.815-1.313 3.59-2.082 5.324l15.832 5.052-.497 3.169-16.839-5.832c-11.295 23.68-35.716 38.057-63.365 35.261-27.605-2.791-49.463-22.668-56.17-48.105l-16.47 2.494-.176-3.236 16.217-1.758c-.44-1.871-.803-2.98-1.075-4.903l-14.149-1.129.129-2.531 13.79 1.101c-.243-2.141-.388-3.518-.415-5.707l-12.598-5.151.618-3.123 11.997 5.614c.028-1.673.1-2.565.259-4.258 3.334-35.464 32.956-42.476 68.347-38.897 35.39 3.579 63.147 16.393 59.813 51.857-.161 1.702-.405 2.586-.691 4.241l12.995-2.822.303 2.862L1.58-5.409C1.152-3.3.624-2.021 0 0" clip-path="url(#b)" style="fill:#55c500;fill-opacity:1;fill-rule:nonzero;stroke:none" transform="matrix(1.3333333 0 0 -1.3333333 278.56147 156.51)"/><path d="m0 0-12.996 2.823c.287-1.656.531-2.54.691-4.242 3.334-35.463-24.423-48.278-59.813-51.857-35.391-3.578-65.012 3.433-68.347 38.897-.159 1.693-.231 2.586-.258 4.259l-11.998-5.615-.617 3.124 12.597 5.15c.027 2.189.173 3.566.416 5.707l-13.79-1.1-.129 2.531 14.149 1.129c.272 1.923.635 3.032 1.074 4.903l-16.217 1.757.176 3.237 16.471-2.495c6.707 25.437 28.565 45.314 56.169 48.105 27.649 2.796 52.071-11.581 63.366-35.261l16.839 5.832.496-3.168-15.831-5.053c.769-1.733 1.464-3.508 2.082-5.324L-1.098 15.1l.198-2.524-14.008-1.717c.624-2.02 1.152-3.3 1.58-5.408L.303 2.862Zm34.367-90.016c-5.912-1.386-11.212 6.884-14.554 11.144-3.46 4.41-2.885 8.865-.971 14.133 4.089 11.254 5.688 23.051 4.239 38.473C20.513 1.037 9.158 25.081-7.517 42.687l-1.251 30.936c-.39 4.882-5.557 7.672-9.637 5.204L-40.089 65.71c-13.801 5.988-28.981 8.613-44.638 7.03-18.304-1.851-34.898-9.212-48.616-20.475l-23.069 5.6c-4.449 1.079-8.65-3.263-7.573-7.828l6.679-26.262c-11.471-19.913-17.16-44.213-14.756-69.774 5.654-60.129 52.335-84.194 106.222-78.744 26.614 2.691 48.598 8.368 64.78 25.626 4.163-9.345 12.089-14.969 21.02-20.923 4.65-3.1 9.547-4.96 14.333-5.678 1.282 1.333 2.537 2.691 3.769 4.071.091.102.181.205.272.307 2.452 2.759 4.803 5.609 7.048 8.545.058.076.117.152.175.228 3.452 4.532 6.653 9.265 9.579 14.181.001.001.002.003.002.004 1.216 2.043 2.368 4.128 3.489 6.232-5.882 3.662-15.385 4.215-24.26 2.134" clip-path="url(#c)" style="fill:#fff;fill-opacity:1;fill-rule:nonzero;stroke:none" transform="matrix(1.3333333 0 0 -1.3333333 298.43933 170.9892)"/></svg>